<svg width="289" height="290" xmlns="http://www.w3.org/2000/svg" xmlns:xlink="http://www.w3.org/1999/xlink" overflow="hidden"><defs><clipPath id="clip0"><path d="M126 156 415 156 415 446 126 446Z" fill-rule="evenodd" clip-rule="evenodd"/></clipPath></defs><g clip-path="url(#clip0)" transform="translate(-126 -156)"><rect x="127" y="157" width="288" height="288" fill="#0070C0"/><path d="M301.181 215.446 336.349 215.446 352.029 327.67 352.477 327.67 368.157 215.446 403.325 215.446 403.325 372.246 380.029 372.246 380.029 253.526 379.581 253.526 361.661 372.246 341.053 372.246 323.133 253.526 322.685 253.526 322.685 372.246 301.181 372.246ZM224.181 215.446 289.365 215.446 289.365 237.846 248.821 237.846 248.821 281.526 280.629 281.526 280.629 303.926 248.821 303.926 248.821 372.246 224.181 372.246ZM172.901 213.206C184.698 213.206 193.696 216.566 199.893 223.286 206.09 230.006 209.189 239.489 209.189 251.734L209.189 268.31 185.893 268.31 185.893 250.166C185.893 240.459 181.786 235.606 173.573 235.606 165.36 235.606 161.253 240.459 161.253 250.166L161.253 337.75C161.253 347.307 165.36 352.086 173.573 352.086 181.786 352.086 185.893 347.307 185.893 337.75L185.893 313.782 209.189 313.782 209.189 335.958C209.189 348.203 206.09 357.686 199.893 364.406 193.696 371.126 184.698 374.486 172.901 374.486 161.104 374.486 152.106 371.126 145.909 364.406 139.712 357.686 136.613 348.203 136.613 335.958L136.613 251.734C136.613 239.489 139.712 230.006 145.909 223.286 152.106 216.566 161.104 213.206 172.901 213.206Z" stroke="#FFFFFF" stroke-width="3" stroke-linejoin="round" stroke-miterlimit="10" fill="#FFFFFF" fill-rule="evenodd"/><text fill="#000000" fill-opacity="0" font-family="Arial,Arial_MSFontService,sans-serif" font-size="161.28" x="136.613" y="354.326">CFM</text></g></svg>