<svg width="4099" height="1994" xmlns="http://www.w3.org/2000/svg" xmlns:xlink="http://www.w3.org/1999/xlink" overflow="hidden"><defs><clipPath id="clip0"><rect x="650" y="443" width="4099" height="1994"/></clipPath></defs><g clip-path="url(#clip0)" transform="translate(-650 -443)"><path d="M2901.27 842.162 3143.04 842.162 3318.94 1574.7 3710.11 842.162 3945.45 842.162 3990.44 1964.26 3759.91 1964.26 3735.01 1199.6 3323.76 1964.26 3210.51 1964.26 3020.95 1181.12 2766.32 1964.26 2530.98 1964.26ZM1970.47 842.162 2576.91 842.162 2550.4 1019.67 2184.13 1019.67 2143.17 1300 2463.65 1300 2437.14 1477.51 2116.66 1477.51 2045.98 1964.26 1805.81 1964.26ZM1529.02 827.704C1565.97 827.704 1606.93 830.113 1651.91 834.933 1696.9 839.752 1738.13 846.713 1775.61 855.816L1734.65 1071.08C1661.82 1049.13 1592.74 1038.15 1527.42 1038.15 1429.42 1038.15 1344.28 1057.29 1271.99 1095.58 1199.7 1133.87 1144.68 1185.67 1106.93 1251 1069.18 1316.33 1050.3 1387.82 1050.3 1465.46 1050.3 1552.21 1074.4 1624.63 1122.59 1682.73 1170.78 1740.83 1239.86 1769.88 1329.82 1769.88 1393.54 1769.88 1457.94 1757.03 1523 1731.33 1588.06 1705.63 1651.91 1669.75 1714.57 1623.7L1675.21 1885.55C1603.99 1918.21 1539.86 1941.91 1482.84 1956.63 1425.81 1971.36 1370.25 1978.72 1316.17 1978.72 1206.93 1978.72 1113.35 1957.44 1035.44 1914.87 957.529 1872.29 898.759 1813.39 859.134 1738.16 819.508 1662.92 799.695 1577.65 799.695 1482.33 799.695 1368.27 827.139 1261.31 882.026 1161.44 936.913 1061.58 1019.24 980.985 1129.02 919.673 1238.79 858.36 1372.13 827.704 1529.02 827.704Z" stroke="#00B0D8" stroke-width="33" stroke-linejoin="round" stroke-miterlimit="10" fill="#00B0D8" fill-rule="evenodd"/><text fill="#000000" fill-opacity="0" font-family="Arial,Arial_MSFontService,sans-serif" font-size="1151.02" x="799.695" y="1834.84">CFM</text><path d="M655 1636 1549.69 1636C1620.28 1636 1677.5 1624.05 1677.5 1609.31 1677.5 1594.57 1620.28 1582.62 1549.69 1582.62L1294.06 1582.62C1223.47 1582.62 1166.25 1570.67 1166.25 1555.93 1166.25 1541.19 1223.47 1529.24 1294.06 1529.24L4105.94 1529.24C4176.53 1529.24 4233.75 1541.19 4233.75 1555.93 4233.75 1570.67 4176.53 1582.62 4105.94 1582.62L3850.31 1582.62C3779.72 1582.62 3722.5 1594.57 3722.5 1609.31 3722.5 1624.05 3779.72 1636 3850.31 1636L4745 1636 4233.75 1443.38 4745 1250.76 4233.75 1250.76 4233.75 1170.69C4233.75 1155.95 4176.53 1144 4105.94 1144L1294.06 1144C1223.47 1144 1166.25 1155.95 1166.25 1170.69L1166.25 1250.76 655 1250.76 1166.25 1443.38Z" fill="#FFFFFF" fill-rule="evenodd"/><path d="M1677.5 1609.31C1677.5 1594.57 1620.28 1582.62 1549.69 1582.62L1294.06 1582.62C1223.47 1582.62 1166.25 1570.67 1166.25 1555.93 1166.25 1541.19 1223.47 1529.24 1294.06 1529.24L1677.5 1529.24ZM3722.5 1609.31C3722.5 1594.57 3779.72 1582.62 3850.31 1582.62L4105.94 1582.62C4176.53 1582.62 4233.75 1570.67 4233.75 1555.93 4233.75 1541.19 4176.53 1529.24 4105.94 1529.24L3722.5 1529.24Z" fill="#CDCDCD" fill-rule="evenodd"/><path d="M655 1636 1166.25 1443.38 655 1250.76 1166.25 1250.76 1166.25 1170.69C1166.25 1155.95 1223.47 1144 1294.06 1144L4105.94 1144C4176.53 1144 4233.75 1155.95 4233.75 1170.69L4233.75 1250.76 4233.75 1250.76 4745 1250.76 4233.75 1443.38 4745 1636 3850.31 1636C3779.72 1636 3722.5 1624.05 3722.5 1609.31 3722.5 1594.57 3779.72 1582.62 3850.31 1582.62L4105.94 1582.62C4176.53 1582.62 4233.75 1570.67 4233.75 1555.93 4233.75 1541.19 4176.53 1529.24 4105.94 1529.24L1294.06 1529.24C1223.47 1529.24 1166.25 1541.19 1166.25 1555.93 1166.25 1570.67 1223.47 1582.62 1294.06 1582.62L1549.69 1582.62C1620.28 1582.62 1677.5 1594.57 1677.5 1609.31 1677.5 1624.05 1620.28 1636 1549.69 1636ZM1677.5 1529.24 1677.5 1609.31M3722.5 1609.31 3722.5 1529.24M1166.25 1555.93 1166.25 1250.76M4233.75 1250.76 4233.75 1555.93" stroke="#00B0D8" stroke-width="8" stroke-linejoin="round" stroke-miterlimit="10" fill="none" fill-rule="evenodd"/><text fill="#00B0D8" font-family="Gill Sans Std,Gill Sans Std_MSFontService,sans-serif" font-style="oblique" font-weight="700" font-stretch="condensed" font-size="304" transform="translate(1248.59 1433)">Summer<tspan x="1080.17" y="0">@</tspan><tspan x="1421.83" y="0">UC</tspan><tspan x="1833" y="0">Berkeley </tspan></text><path d="M1529.26 827.704C1566.2 827.704 1607.17 830.113 1652.15 834.933 1697.13 839.752 1738.36 846.713 1775.85 855.816L1734.88 1071.08C1662.06 1049.13 1592.98 1038.15 1527.65 1038.15 1429.66 1038.15 1344.52 1057.29 1272.23 1095.58 1199.94 1133.87 1144.91 1185.67 1107.16 1251 1069.41 1316.33 1050.54 1387.82 1050.54 1465.46 1050.54 1552.21 1074.63 1624.63 1122.83 1682.73 1171.02 1740.83 1240.1 1769.88 1330.06 1769.88 1393.78 1769.88 1458.17 1757.03 1523.23 1731.33 1588.29 1705.63 1652.15 1669.75 1714.8 1623.7L1675.44 1885.55C1604.22 1918.21 1540.1 1941.91 1483.07 1956.63 1426.04 1971.36 1370.49 1978.72 1316.4 1978.72 1207.16 1978.72 1113.59 1957.44 1035.68 1914.87 957.764 1872.29 898.995 1813.39 859.369 1738.16 819.743 1662.92 799.93 1577.65 799.93 1482.33 799.93 1368.27 827.374 1261.31 882.261 1161.44 937.148 1061.58 1019.48 980.985 1129.25 919.673 1239.03 858.36 1372.36 827.704 1529.26 827.704Z" stroke="#00B0D8" stroke-width="33" stroke-linejoin="round" stroke-miterlimit="10" fill="#00B0D8" fill-rule="evenodd"/><text fill="#000000" fill-opacity="0" font-family="Arial,Arial_MSFontService,sans-serif" font-size="1151.02" x="799.93" y="1834.84">C  </text></g></svg>